<svg viewBox="0 0 64 64" xmlns="http://www.w3.org/2000/svg" aria-labelledby="title"
aria-describedby="desc" role="img" xmlns:xlink="http://www.w3.org/1999/xlink">
  <title>Item Grid</title>
  <desc>A solid styled icon from Orion Icon Library.</desc>
  <path fill="#004953"
  d="M2 20v38h60V20zm18 30h-8v-8h8zm0-16h-8v-8h8zm16 16h-8v-8h8zm0-16h-8v-8h8zm16 16h-8v-8h8zm0-16h-8v-8h8z"
  data-name="layer2"></path>
  <path fill="#004953" d="M2 6v10h60V6zm6 7a2 2 0 1 1 2-2 2 2 0 0 1-2 2zm6 0a2 2 0 1 1 2-2 2 2 0 0 1-2 2zm6 0a2 2 0 1 1 2-2 2 2 0 0 1-2 2z"
  data-name="layer1"></path>
</svg>