<svg width="127" height="124" viewBox="0 0 127 124" fill="none" xmlns="http://www.w3.org/2000/svg">
<ellipse cx="63.5" cy="62" rx="63.5" ry="62" fill="#B0D8DD"/>
<path d="M64 64.875C66.8477 64.875 69.1562 62.5665 69.1562 59.7188C69.1562 56.871 66.8477 54.5625 64 54.5625C61.1523 54.5625 58.8438 56.871 58.8438 59.7188C58.8438 62.5665 61.1523 64.875 64 64.875Z" stroke="#004953" stroke-width="3" stroke-miterlimit="10" stroke-linecap="round" stroke-linejoin="round"/>
<path d="M72.6625 69H55.3375C54.8999 69 54.4802 69.1738 54.1708 69.4833C53.8613 69.7927 53.6875 70.2124 53.6875 70.65V81.7875C53.6875 82.2251 53.8613 82.6448 54.1708 82.9542C54.4802 83.2637 54.8999 83.4375 55.3375 83.4375H57.8125V96.225C57.8125 96.6626 57.9863 97.0823 58.2958 97.3917C58.6052 97.7012 59.0249 97.875 59.4625 97.875H68.5375C68.9751 97.875 69.3948 97.7012 69.7042 97.3917C70.0137 97.0823 70.1875 96.6626 70.1875 96.225V83.4375H72.6625C73.1001 83.4375 73.5198 83.2637 73.8292 82.9542C74.1387 82.6448 74.3125 82.2251 74.3125 81.7875V70.65C74.3125 70.2124 74.1387 69.7927 73.8292 69.4833C73.5198 69.1738 73.1001 69 72.6625 69Z" stroke="#004953" stroke-width="3" stroke-miterlimit="10" stroke-linecap="round" stroke-linejoin="round"/>
<path d="M41.3125 48.375C43.5907 48.375 45.4375 46.5282 45.4375 44.25C45.4375 41.9718 43.5907 40.125 41.3125 40.125C39.0343 40.125 37.1875 41.9718 37.1875 44.25C37.1875 46.5282 39.0343 48.375 41.3125 48.375Z" stroke="#004953" stroke-width="3" stroke-miterlimit="10" stroke-linecap="round" stroke-linejoin="round"/>
<path d="M47.9125 52.5H34.7125C34.2749 52.5 33.8552 52.6738 33.5458 52.9833C33.2363 53.2927 33.0625 53.7124 33.0625 54.15V63.225C33.0625 63.6626 33.2363 64.0823 33.5458 64.3917C33.8552 64.7012 34.2749 64.875 34.7125 64.875H37.1875V75.6C37.1875 76.0376 37.3613 76.4573 37.6708 76.7667C37.9802 77.0762 38.3999 77.25 38.8375 77.25H43.7875C44.2251 77.25 44.6448 77.0762 44.9542 76.7667C45.2637 76.4573 45.4375 76.0376 45.4375 75.6V64.875H47.9125C48.3501 64.875 48.7698 64.7012 49.0792 64.3917C49.3887 64.0823 49.5625 63.6626 49.5625 63.225V54.15C49.5625 53.7124 49.3887 53.2927 49.0792 52.9833C48.7698 52.6738 48.3501 52.5 47.9125 52.5Z" stroke="#004953" stroke-width="3" stroke-miterlimit="10" stroke-linecap="round" stroke-linejoin="round"/>
<path d="M86.6875 48.375C88.9657 48.375 90.8125 46.5282 90.8125 44.25C90.8125 41.9718 88.9657 40.125 86.6875 40.125C84.4093 40.125 82.5625 41.9718 82.5625 44.25C82.5625 46.5282 84.4093 48.375 86.6875 48.375Z" stroke="#004953" stroke-width="3" stroke-miterlimit="10" stroke-linecap="round" stroke-linejoin="round"/>
<path d="M93.2875 52.5H80.0875C79.6499 52.5 79.2302 52.6738 78.9208 52.9833C78.6113 53.2927 78.4375 53.7124 78.4375 54.15V63.225C78.4375 63.6626 78.6113 64.0823 78.9208 64.3917C79.2302 64.7012 79.6499 64.875 80.0875 64.875H82.5625V75.6C82.5625 76.0376 82.7363 76.4573 83.0458 76.7667C83.3552 77.0762 83.7749 77.25 84.2125 77.25H89.1625C89.6001 77.25 90.0198 77.0762 90.3292 76.7667C90.6387 76.4573 90.8125 76.0376 90.8125 75.6V64.875H93.2875C93.7251 64.875 94.1448 64.7012 94.4542 64.3917C94.7637 64.0823 94.9375 63.6626 94.9375 63.225V54.15C94.9375 53.7124 94.7637 53.2927 94.4542 52.9833C94.1448 52.6738 93.7251 52.5 93.2875 52.5Z" stroke="#004953" stroke-width="3" stroke-miterlimit="10" stroke-linecap="round" stroke-linejoin="round"/>
</svg>
