<svg xmlns="http://www.w3.org/2000/svg" viewBox="0 0 64 64" aria-labelledby="title"
aria-describedby="desc" role="img" xmlns:xlink="http://www.w3.org/1999/xlink">
  <title>Move Left</title>
  <desc>A solid styled icon from Orion Icon Library.</desc>
  <path data-name="layer2"
  d="M31.242 21.007a3.001 3.001 0 0 1-.249 4.236L27.891 28H55a3 3 0 0 1 0 6H27.89l3.103 2.758a3 3 0 0 1-3.986 4.485L15.484 31l11.523-10.242a3 3 0 0 1 4.235.249z"
  fill="#004953"></path>
  <path data-name="layer1" d="M11 10a3 3 0 0 1 3 3v36a3 3 0 0 1-6 0V13a3 3 0 0 1 3-3z"
  fill="#004953"></path>
</svg>