<svg xmlns="http://www.w3.org/2000/svg" viewBox="0 0 64 64" aria-labelledby="title"
aria-describedby="desc" role="img" xmlns:xlink="http://www.w3.org/1999/xlink">
  <title>Read Email</title>
  <desc>A solid styled icon from Orion Icon Library.</desc>
  <path data-name="layer2"
  fill="#004953" d="M45.2 42.2L62 59.1V30.6L45.2 42.2zM2 30.2v28.9l16.8-16.9L2 30.2zm22.3 12.1L4.8 62h54.4L39.7 42.3c-3.2-3.1-12.2-3.1-15.4 0zM58 24.6v3.9l2.5-1.8-2.5-2.1zm-52 0l-2.3 1.9L6 28.1v-3.5z"></path>
  <path data-name="layer1" d="M42.2 39.3L54 31.2V2H10v29.2l11.6 8.1c4.8-4.4 15.9-4.4 20.6 0zM46 22H24v-4h22zM18 10h10v4H18zm0 16h28v4H18z"
  fill="#004953"></path>
</svg>