<svg xmlns="http://www.w3.org/2000/svg" viewBox="0 0 64 64" aria-labelledby="title"
aria-describedby="desc" role="img" xmlns:xlink="http://www.w3.org/1999/xlink">
  <title>Meeting Place</title>
  <desc>A solid styled icon from Orion Icon Library.</desc>
  <path d="M48 30a16 16 0 1 0 16 16 16 16 0 0 0-16-16zm8.1 20h-10V38a2 2 0 0 1 4 0v8h6a2 2 0 0 1 0 4z"
  fill="#004953" data-name="layer2"></path>
  <path data-name="layer1" d="M22 2A22.2 22.2 0 0 0 0 24.4c0 .7 0 1.5.1 2.2v.3C1.9 44.5 22 58 22 58a65.3 65.3 0 0 0 7-5.8 20 20 0 0 1 14.9-25.8c.1-.7.1-1.3.1-2A22.2 22.2 0 0 0 22 2zm0 32a10 10 0 1 1 10-10 10 10 0 0 1-10 10z"
  fill="#004953"></path>
</svg>